<?xml version="1.0" encoding="UTF-8" standalone="no"?>
<!DOCTYPE svg PUBLIC "-//W3C//DTD SVG 1.1//EN"
 "http://www.w3.org/Graphics/SVG/1.1/DTD/svg11.dtd">
<!-- Generated by graphviz version 9.0.0 (20230911.1827)
 -->
<!-- Pages: 1 -->
<svg width="685pt" height="524pt"
 viewBox="0.00 0.00 685.00 524.00" xmlns="http://www.w3.org/2000/svg" xmlns:xlink="http://www.w3.org/1999/xlink">
<g id="graph0" class="graph" transform="scale(1 1) rotate(0) translate(4 520)">
<polygon fill="white" stroke="none" points="-4,4 -4,-520 681,-520 681,4 -4,4"/>
<g id="clust1" class="cluster">
<title>cluster_wings3py</title>
<polygon fill="none" stroke="black" points="8,-8 8,-508 669,-508 669,-8 8,-8"/>
</g>
<g id="clust2" class="cluster">
<title>cluster_binwings3cpp</title>
<polygon fill="none" stroke="black" points="177,-224 177,-500 649,-500 649,-224 177,-224"/>
</g>
<g id="clust3" class="cluster">
<title>cluster_audioCaptureMic</title>
<polygon fill="none" stroke="black" points="220,-440 220,-492 398,-492 398,-440 220,-440"/>
</g>
<!-- wings3py -->
<g id="node1" class="node">
<title>wings3py</title>
<ellipse fill="none" stroke="black" cx="313" cy="-178" rx="46.07" ry="18"/>
<text text-anchor="middle" x="313" y="-172.57" font-family="Times New Roman,serif" font-size="14.00">wings3py</text>
</g>
<!-- LedSimulatorWindow -->
<g id="node2" class="node">
<title>LedSimulatorWindow</title>
<ellipse fill="none" stroke="black" cx="108" cy="-106" rx="92.48" ry="18"/>
<text text-anchor="middle" x="108" y="-100.58" font-family="Times New Roman,serif" font-size="14.00">LedSimulatorWindow</text>
</g>
<!-- wings3py&#45;&gt;LedSimulatorWindow -->
<g id="edge2" class="edge">
<title>wings3py&#45;&gt;LedSimulatorWindow</title>
<path fill="none" stroke="black" d="M279.15,-165.44C247.58,-154.66 199.93,-138.39 162.92,-125.75"/>
<polygon fill="black" stroke="black" points="164.32,-122.53 153.73,-122.61 162.06,-129.16 164.32,-122.53"/>
</g>
<!-- MetricDisplayWindow -->
<g id="node3" class="node">
<title>MetricDisplayWindow</title>
<ellipse fill="none" stroke="black" cx="313" cy="-106" rx="94.48" ry="18"/>
<text text-anchor="middle" x="313" y="-100.58" font-family="Times New Roman,serif" font-size="14.00">MetricDisplayWindow</text>
</g>
<!-- wings3py&#45;&gt;MetricDisplayWindow -->
<g id="edge3" class="edge">
<title>wings3py&#45;&gt;MetricDisplayWindow</title>
<path fill="none" stroke="black" d="M313,-159.7C313,-152.41 313,-143.73 313,-135.54"/>
<polygon fill="black" stroke="black" points="316.5,-135.62 313,-125.62 309.5,-135.62 316.5,-135.62"/>
</g>
<!-- SimulatedRemoteWindow -->
<g id="node4" class="node">
<title>SimulatedRemoteWindow</title>
<ellipse fill="none" stroke="black" cx="533" cy="-106" rx="107.95" ry="18"/>
<text text-anchor="middle" x="533" y="-100.58" font-family="Times New Roman,serif" font-size="14.00">SimulatedRemoteWindow</text>
</g>
<!-- wings3py&#45;&gt;SimulatedRemoteWindow -->
<g id="edge4" class="edge">
<title>wings3py&#45;&gt;SimulatedRemoteWindow</title>
<path fill="none" stroke="black" d="M347.86,-165.91C381.6,-155.17 433.4,-138.69 473.64,-125.89"/>
<polygon fill="black" stroke="black" points="474.49,-129.29 482.95,-122.92 472.36,-122.62 474.49,-129.29"/>
</g>
<!-- SimulatedRemoteWindowSocketServerThread -->
<g id="node5" class="node">
<title>SimulatedRemoteWindowSocketServerThread</title>
<ellipse fill="lightgrey" stroke="black" cx="477" cy="-34" rx="184.3" ry="18"/>
<text text-anchor="middle" x="477" y="-28.57" font-family="Times New Roman,serif" font-size="14.00">SimulatedRemoteWindowSocketServerThread</text>
</g>
<!-- SimulatedRemoteWindow&#45;&gt;SimulatedRemoteWindowSocketServerThread -->
<g id="edge5" class="edge">
<title>SimulatedRemoteWindow&#45;&gt;SimulatedRemoteWindowSocketServerThread</title>
<path fill="none" stroke="black" d="M519.16,-87.7C512.71,-79.64 504.92,-69.89 497.79,-60.98"/>
<polygon fill="black" stroke="black" points="500.61,-58.91 491.63,-53.29 495.14,-63.28 500.61,-58.91"/>
</g>
<!-- SocketReceiverThread -->
<g id="node8" class="node">
<title>SocketReceiverThread</title>
<ellipse fill="lightgrey" stroke="black" cx="546" cy="-394" rx="95.47" ry="18"/>
<text text-anchor="middle" x="546" y="-388.57" font-family="Times New Roman,serif" font-size="14.00">SocketReceiverThread</text>
</g>
<!-- SimulatedRemoteWindowSocketServerThread&#45;&gt;SocketReceiverThread -->
<g id="edge8" class="edge">
<title>SimulatedRemoteWindowSocketServerThread&#45;&gt;SocketReceiverThread</title>
<path fill="none" stroke="black" d="M588.46,-48.74C611.9,-56.7 634.25,-69.02 650,-88 675.42,-118.63 660,-137.2 660,-177 660,-251 660,-251 660,-251 660,-290.8 672.66,-307.28 650,-340 639.63,-354.97 623.73,-365.96 607.46,-373.92"/>
<polygon fill="black" stroke="black" points="606.38,-370.57 598.7,-377.87 609.26,-376.95 606.38,-370.57"/>
</g>
<!-- wings3core -->
<g id="node6" class="node">
<title>wings3core</title>
<ellipse fill="none" stroke="black" cx="313" cy="-250" rx="53.06" ry="18"/>
<text text-anchor="middle" x="313" y="-244.57" font-family="Times New Roman,serif" font-size="14.00">wings3core</text>
</g>
<!-- wings3core&#45;&gt;wings3py -->
<g id="edge1" class="edge">
<title>wings3core&#45;&gt;wings3py</title>
<path fill="none" stroke="black" d="M313,-231.7C313,-224.41 313,-215.73 313,-207.54"/>
<polygon fill="black" stroke="black" points="316.5,-207.62 313,-197.62 309.5,-207.62 316.5,-207.62"/>
</g>
<!-- wings3socketRemoteControl -->
<g id="node7" class="node">
<title>wings3socketRemoteControl</title>
<ellipse fill="none" stroke="black" cx="523" cy="-322" rx="118.43" ry="18"/>
<text text-anchor="middle" x="523" y="-316.57" font-family="Times New Roman,serif" font-size="14.00">wings3socketRemoteControl</text>
</g>
<!-- wings3socketRemoteControl&#45;&gt;wings3core -->
<g id="edge7" class="edge">
<title>wings3socketRemoteControl&#45;&gt;wings3core</title>
<path fill="none" stroke="black" d="M475.35,-305.12C441.06,-293.69 395,-278.33 360.7,-266.9"/>
<polygon fill="black" stroke="black" points="362.04,-263.66 351.45,-263.82 359.83,-270.3 362.04,-263.66"/>
</g>
<!-- SocketReceiverThread&#45;&gt;wings3socketRemoteControl -->
<g id="edge6" class="edge">
<title>SocketReceiverThread&#45;&gt;wings3socketRemoteControl</title>
<path fill="none" stroke="black" d="M540.31,-375.7C537.86,-368.24 534.93,-359.32 532.19,-350.97"/>
<polygon fill="black" stroke="black" points="535.54,-349.95 529.09,-341.54 528.89,-352.14 535.54,-349.95"/>
</g>
<!-- wings3fakeMicrophone -->
<g id="node9" class="node">
<title>wings3fakeMicrophone</title>
<ellipse fill="none" stroke="black" cx="289" cy="-322" rx="97.47" ry="18"/>
<text text-anchor="middle" x="289" y="-316.57" font-family="Times New Roman,serif" font-size="14.00">wings3fakeMicrophone</text>
</g>
<!-- wings3fakeMicrophone&#45;&gt;wings3core -->
<g id="edge9" class="edge">
<title>wings3fakeMicrophone&#45;&gt;wings3core</title>
<path fill="none" stroke="black" d="M294.93,-303.7C297.49,-296.24 300.55,-287.32 303.41,-278.97"/>
<polygon fill="black" stroke="black" points="306.71,-280.13 306.64,-269.54 300.09,-277.86 306.71,-280.13"/>
</g>
<!-- wings3fakeMicrophoneThread -->
<g id="node10" class="node">
<title>wings3fakeMicrophoneThread</title>
<ellipse fill="lightgrey" stroke="black" cx="309" cy="-394" rx="123.92" ry="18"/>
<text text-anchor="middle" x="309" y="-388.57" font-family="Times New Roman,serif" font-size="14.00">wings3fakeMicrophoneThread</text>
</g>
<!-- wings3fakeMicrophoneThread&#45;&gt;wings3fakeMicrophone -->
<g id="edge10" class="edge">
<title>wings3fakeMicrophoneThread&#45;&gt;wings3fakeMicrophone</title>
<path fill="none" stroke="black" d="M304.06,-375.7C301.92,-368.24 299.38,-359.32 296.99,-350.97"/>
<polygon fill="black" stroke="black" points="300.42,-350.21 294.3,-341.56 293.68,-352.14 300.42,-350.21"/>
</g>
<!-- fakeMicrophonepy -->
<g id="node11" class="node">
<title>fakeMicrophonepy</title>
<ellipse fill="none" stroke="black" cx="309" cy="-466" rx="81" ry="18"/>
<text text-anchor="middle" x="309" y="-460.57" font-family="Times New Roman,serif" font-size="14.00">fakeMicrophonepy</text>
</g>
<!-- fakeMicrophonepy&#45;&gt;wings3fakeMicrophoneThread -->
<g id="edge11" class="edge">
<title>fakeMicrophonepy&#45;&gt;wings3fakeMicrophoneThread</title>
<path fill="none" stroke="black" d="M309,-447.7C309,-440.41 309,-431.73 309,-423.54"/>
<polygon fill="black" stroke="black" points="312.5,-423.62 309,-413.62 305.5,-423.62 312.5,-423.62"/>
</g>
</g>
</svg>
